<svg width="54" height="24" viewBox="0 0 54 24" fill="none" xmlns="http://www.w3.org/2000/svg">
<path d="M20.2272 8.76312V19.1419H16.3693V10.143C16.3693 8.95128 15.879 8.47679 15.1289 8.47679C14.4752 8.47679 13.725 8.90492 12.0426 10.2384V19.1446H8.18466V10.1457C8.18466 8.954 7.69438 8.47951 6.94423 8.47951C6.31465 8.47951 5.54038 8.90764 3.85791 10.2629V19.1419H0V4.85813H3.62483V6.64155C5.54306 5.14173 7.04068 4.47363 8.51151 4.47363C9.75194 4.47363 11.129 5.01902 11.7613 6.61701C13.725 5.09265 15.2227 4.47363 16.6935 4.47363C18.4269 4.47363 20.2245 5.54532 20.2245 8.76039M32.8565 4.85813H36.5296V19.1419H32.8565V17.263C31.5947 18.8092 29.955 19.5264 28.0609 19.5264C24.2244 19.5264 21.0444 16.1695 21.0444 12.0027C21.0444 7.83596 24.2244 4.47909 28.0609 4.47909C29.9577 4.47909 31.592 5.19355 32.8565 6.74245V4.86086V4.85813ZM32.7869 12C32.7869 9.66846 30.9383 7.78687 28.6476 7.78687C26.357 7.78687 24.5084 9.66846 24.5084 12C24.5084 14.3315 26.3543 16.2131 28.6476 16.2131C30.941 16.2131 32.7869 14.3315 32.7869 12ZM28.645 8.73857C26.8902 8.73857 25.4649 10.1893 25.4649 12C25.4649 13.8107 26.8902 15.2614 28.645 15.2614C30.3998 15.2614 31.8251 13.8107 31.8251 12C31.8251 10.1893 30.3998 8.73857 28.645 8.73857ZM54 4.85813H49.3919C48.2453 6.66882 47.0049 8.19318 45.6251 9.69028C44.2213 8.19046 42.9835 6.66882 41.8583 4.85813H37.202C38.7907 7.38056 40.5938 9.64392 42.6995 11.9073C40.5938 14.2634 38.7934 16.7149 37.202 19.1446H41.8583C42.9567 17.3339 44.1972 15.6923 45.6251 14.1461C47.029 15.695 48.1997 17.3366 49.2982 19.1446H54C52.3845 16.644 50.6324 14.2634 48.5266 11.9073C50.6083 9.64392 52.3845 7.31238 54 4.85813Z" fill="white"/>
</svg>
