<svg width="50" height="50" viewBox="0 0 50 50" fill="none" xmlns="http://www.w3.org/2000/svg">
<path d="M17.1875 35.9375H21.3542V18.2291H15.1042V22.3958H17.1875V35.9375ZM27.6042 35.9375H30.7292C31.875 35.9375 32.8562 35.5298 33.6729 34.7146C34.4896 33.8993 34.8972 32.918 34.8958 31.7708V22.3958C34.8958 21.25 34.4882 20.2694 33.6729 19.4541C32.8576 18.6389 31.8764 18.2305 30.7292 18.2291H27.6042C26.4583 18.2291 25.4778 18.6375 24.6625 19.4541C23.8472 20.2708 23.4389 21.2514 23.4375 22.3958V31.7708C23.4375 32.9166 23.8458 33.8979 24.6625 34.7146C25.4792 35.5312 26.4597 35.9389 27.6042 35.9375ZM27.6042 31.7708V22.3958H30.7292V31.7708H27.6042ZM18.75 6.24998V2.08331H31.25V6.24998H18.75ZM25 45.8333C22.4306 45.8333 20.0083 45.3389 17.7333 44.35C15.4583 43.3611 13.4708 42.0153 11.7708 40.3125C10.0708 38.6097 8.72569 36.6215 7.73542 34.3479C6.74514 32.0743 6.25 29.6528 6.25 27.0833C6.25 24.5139 6.74514 22.0916 7.73542 19.8166C8.72569 17.5416 10.0708 15.5541 11.7708 13.8541C13.4708 12.1541 15.459 10.809 17.7354 9.81873C20.0118 8.82845 22.4333 8.33331 25 8.33331C27.1528 8.33331 29.2188 8.68053 31.1979 9.37498C33.1771 10.0694 35.0347 11.0764 36.7708 12.3958L39.6875 9.47915L42.6042 12.3958L39.6875 15.3125C41.0069 17.0486 42.0139 18.9062 42.7083 20.8854C43.4028 22.8646 43.75 24.9305 43.75 27.0833C43.75 29.6528 43.2549 32.075 42.2646 34.35C41.2743 36.625 39.9292 38.6125 38.2292 40.3125C36.5292 42.0125 34.541 43.3583 32.2646 44.35C29.9882 45.3416 27.5667 45.8361 25 45.8333ZM25 41.6666C29.0278 41.6666 32.4653 40.243 35.3125 37.3958C38.1597 34.5486 39.5833 31.1111 39.5833 27.0833C39.5833 23.0555 38.1597 19.618 35.3125 16.7708C32.4653 13.9236 29.0278 12.5 25 12.5C20.9722 12.5 17.5347 13.9236 14.6875 16.7708C11.8403 19.618 10.4167 23.0555 10.4167 27.0833C10.4167 31.1111 11.8403 34.5486 14.6875 37.3958C17.5347 40.243 20.9722 41.6666 25 41.6666Z" fill="white"/>
</svg>
